<svg width="223" height="193" fill="none" xmlns="http://www.w3.org/2000/svg"><path fill-rule="evenodd" clip-rule="evenodd" d="M201.056 153.491c-1.435 1.124-2.108 2.752-2.397 4.583-.159 1.01-1.081 1.148-1.774 1.325-.6.154-1.154.174-1.639.67-.201.205-.827.25-1.09.089-.842-.513-1.743-.888-2.52-1.572-2.735-2.407-4.74-5.384-6.617-8.421-1.915-3.099-3.919-6.164-5.386-9.525-.455-1.047-.474-1.038.674-1.85.933 1.775 1.804 3.577 2.811 5.299.799 1.366 1.766 2.632 2.739 4.062.229-.576.224-.944-.132-1.457-1.936-2.798-3.774-5.658-5.232-8.933l.794-.519.456.394v-1.166l2.136-.424c.636.297.938 1.423 1.986 1.563-.034 1.139.962 1.707 1.463 2.539.621 1.032 1.462 1.931 2.058 2.694.673-.09 1.176-.184 1.683-.219 1.782-.125 1.739-.069 2.849.91 1.234 1.088 2.077 2.61 3.668 3.301.103.044.217.2.222.309.05 1.144.691 1.56 1.765 1.838.902.234 1.158 1.184 1.201 2.119.032.717.164 1.429.282 2.391zM41.974 20.527c1.276.638 1.276.638 1.963-.699.872-.299 1.927.304 2.716-.498.888.222 1.764.522 2.665.647 1.455.2 2.206 1.325 3.028 2.272.558.643 1.142 1.29 1.652 1.988.596.818 1.309 1.55 1.907 2.365.543.739 1.006 1.537 1.488 2.32.133.217.304.481.285.71-.052.608.159 1.017.591 1.453.83.838.766 2.068 1.055 3.114.267.975.114 2.086.027 3.129-.032.398-.085 1.247-.96.62-.063-.044-.369.282-.58.405-.222.13-.601.378-.68.31-.924-.812-1.15-.232-1.572.57-.622 1.181-1.001 1.094-2.67.796-1.017-.182-2.094-.214-2.688-1.095-1.609-2.384-3.257-4.752-3.48-7.799-.088-1.22-.43-2.495-1.437-3.373-.868-.757-1.444-1.838-2.629-2.26-.357-.128-.619-.554-.896-.868-.59-.67-.907-1.414-.923-2.355-.016-.979.757-1.198 1.138-1.752zM178.331 100.2c-1.041-1.041-1.915-2.061-2.934-2.907-2.923-2.425-4.311-5.856-6.059-9.05-.786-1.434-.561-3.045-.527-4.596.006-.27.378-.53.595-.813l.982 1.942v-2.872c.612-.303 1.216-.468 1.628-.843.512-.465 1.089-.373 1.558-.255.547.137 1.013.593 1.562.942-.322 1.507.271 2.77 1.006 4.084.659-.178 1.435.29 2.094-.386.14-.144.598-.155.795-.036 1.614.97 3.595 1.486 4.411 3.48.146.359.309.823.604.983.444.24.045.992.808 1.021.628.024.227.665.34 1.013.139.432.33.855.405 1.298.07.406.015.833.015 1.254-1.615 1.386-2.654 3.15-3.45 5.117l-3.833.624zM3.112 2.116c.384-.522.682-.957 1.013-1.368.121-.149.308-.253.482-.35.494-.278.848.505 1.4.164.434-.266.942-.506 1.436-.554.41-.04 1.02.455 1.24.296.491-.354.785-.46 1.213.019.08.087.37.021.551-.023 1.341-.323 1.34-.327 2.058.976l.337-.971c.212.574.42.982.508 1.414.108.528.134 1.074.16 1.614.024.544.005 1.089.31 1.648l.203-2.022c.072-.004.144-.007.217-.009.039.358.108.716.11 1.075.012 1.819-.073 3.642.03 5.455.092 1.6-.182 3.047-1.085 4.37-.34-.324-.66-.816-1.046-.032-.422.856-1.097.791-1.97.399-.146.93-.211 2.029-1.753 1.678v-2.332l-.309-.062-.74 2.41c-.689-.462-1.253-.953-1.141-1.923.03-.273-.287-.57-.39-.874-.444-1.323-.437-1.326-1.534-1.357-.21-.006-.42-.001-.63-.001h-.576c-.532-.532-1.012-1.044-1.525-1.519C.588 9.227.24 7.89.065 6.501c-.087-.689.062-1.409-.036-2.095-.108-.755.282-1.314.626-1.846.686-1.061 1.06-1.092 2.457-.444zm122.689 16.651c-.897.61-1.761 1.22-2.661 1.77-.087.054-.4-.263-.738-.5-.207.372-.348.712-.567.99-.257.328-.588.598-.881.9-.592.61-1.163 1.289-2.038.362-.068-.07-.271-.001-.409-.016-.984-.106-1.921.14-2.911-.652-.797-.638-1.811-1.078-2.56-1.86-.702-.735-1.429-1.424-1.919-2.356-.751-1.431-1.493-2.846-1.226-4.525.067-.422.357-.808.618-1.372l1.306 1.07c.342-1.136.272-2.457 1.325-3.458l1.309.978V8.563c1.382-.236 2.638-.71 4.024-.628.794.048 1.481.3 1.984.782.646.619 1.438 1.061 1.965 1.854.477.718 1.129 1.318 1.63 2.057.821 1.215 1.099 2.635 1.7 3.928.287.617.049 1.477.049 2.211zm-89.098 40.22V63.5c.419-1.14.346-2.293.382-3.44.014-.46-.205-1.035.355-1.31.577-.286 1.188-.568 1.81-.66.215-.031.623.476.745.809.131.357.03.799.03 1.25.349-.146.556-.315.742-.294.385.043.912.398 1.109.255 1.093-.805 2.291-.276 3.421-.34.512-.028 1.286.314 1.53.729.602 1.022 1.817 1.334 2.453 2.537.021.514.089 1.149.623 1.832.7.896 1.297 2.008 1.08 3.319-.101.61-.018 1.249-.018 1.992-1.434.85-2.926 1.677-4.356 2.6-1.497.966-2.858.317-4.132-.35-.93-.488-2.177-.716-2.491-2.014-2.078-.935-2.448-3.125-3.557-4.78-.746-1.113-.723-2.407-.934-3.584-.175-.973.512-2.1.817-3.158l.39.093zM77.41 81.751l-2.88-2.881c0-.7-.073-1.534.037-2.343.042-.3.476-.605.8-.781.122-.068.437.217.667.343.306-.605.485-1.423 1.518-1.224.192.038.464.05.595-.057.515-.416 1.075-.841 1.733-.658 1.18.328 2.494.52 3.413 1.334 1.818 1.61 3.546 3.36 4.45 5.685.54 1.386 1.027 2.818 1.287 4.274.114.638-.058 1.512-.784 2.02C87.05 88.3 85.9 89.204 84.679 90c-.416.27-1.002.458-1.488.416-3.057-.265-5.235-1.703-6.139-5.156-.132-.503-.447-1.027-.38-1.498.1-.68.471-1.323.738-2.01zm5.245 76.009l-.25-1.266c-.005 1.674-1.773 2.301-2.158 3.724-.137.509-.89.736-1.202.453-.508-.46-.854-.124-1.141.062-.763.497-1.411.449-2.19-.006-2.246-1.313-4.563-2.519-5.886-4.926-1.596-.863-2.063-2.617-3.054-3.95-.482-.648-.635-1.54-.972-2.411.586-.854 1.438-.627 2.468-.114-.1-.485-.072-.932-.276-1.207-.282-.379.02-.528.179-.595.725-.303 1.475-.525 2.072-1.098.146-.14.558-.084.814-.007.458.139.85.431 1.358.018.144-.117.614.116.908.246 2.533 1.112 4.825 2.507 6.324 4.975.203.334.658.687.998 1.004.976.906 1.159 2.227 1.914 3.204.501.651.392 1.222.094 1.894zm127.703-98.087l.173-1.204c.153.11.288.155.324.24.539 1.32 1.211 2.584 1.528 3.995.199.887.453 1.736-.406 2.428-.584.47.009 1.822-1.306 1.746-.621.996-1.614.897-2.565.829-.214.666-.348 1.316-.628 1.895-.315.653-1.323.837-2.404.528-.247-.07-.485-.31-.711-.29-1.752.153-1.748.166-2.485-1.215-.368-.689-.812-1.347-1.098-2.068-.347-.88-.887-1.429-1.775-1.808a4 4 0 01-2.402-3.067c-.206-1.232.37-2.36 1.469-3.248l1.85 2.414c0-1.017-.011-1.701.003-2.385.013-.68.088-.54 1.163-1.025.768-.346 1.881.073 2.323-.993.76-.03 1.518-.057 2.277-.086 1.402-.056 2.645.097 3.299 1.655.259.617.88 1.083 1.371 1.659zM2.945 69.894c-1.66-.359-2.243-1.536-2.394-2.57C.357 66-.091 64.703.016 63.304a35.9 35.9 0 00-.007-5.458c-.065-.879.499-1.529.486-2.35-.003-.214.294-.628.434-.62 1.083.063 1.598-1.11 2.733-1.117.752-.004 1.5-.709 2.345-1.15.831.831 2.6-.197 3.274 1.637-.441 1.288.658 2.42 1.03 3.74.053.184.246.348.248.523.017 2.079.01 4.157.01 6.415-.336-.299-.482-.427-.843-.75.113.49.091.863.258.99.177.136.552-.015.803.07.114.037.175.339.188.525.006.086-.18.275-.248.261-.51-.1-1.011-.238-1.562-.376l-1.076 2.33-1.257-.094c.6.605-.09.822-.339 1.194-.254.377-.44.8-.64 1.176-1.325-.144-1.818-.997-2.172-2.127l-.736 1.77zm154.866 96.749c-1.089-.031-2.119-.325-2.645.881-.889-1.171-.993-2.002-.089-2.932.625-.642 1.037-1.443 1.833-1.998.697-.486.953-1.56 1.553-2.245.462-.526 1.154-.85 1.744-1.263l.698.684-.988.702.109.252 1.498-.236c.144.215.31.768.668.954 2.145 1.117 3.514 2.981 4.818 4.895.428.628.575 1.44.919 2.135.85 1.718 1.069 2.035.81 3.597-.186 1.128-.392 2.332-1.279 3.251-.35.363-.723.887-.742 1.351-.046 1.173-.69 1.36-1.637 1.3a2.537 2.537 0 00-.803.086c-1.652.445-1.823.398-2.646-.868-1.221-1.876-1.804-4.02-2.514-6.105-.501-1.472-.884-2.987-1.307-4.441zm-26.754-23.081c-1.169-.664-2.352-1.245-3.305-2.205-1.775-1.793-3.68-3.472-5.318-5.382-1.722-2.008-3.545-3.988-4.584-6.342.11-.93 1.321.058 1.344-1.039.007-.314.774-.616 1.2-.913 1.057-.738 1.647-.861 2.417-.042.76.81 1.639 1.1 2.633 1.31 1.536.326 2.596 1.505 3.91 2.231 1.407.776 2.409 2.026 3.551 3.111.592.562 1.327.993 1.836 1.615.511.626.981 1.378 1.162 2.147.11.468-.242 1.175-.6 1.592-.442.515-.651 1.257-1.425 1.507-.447.143-.384.643-.471 1.055-.101.473-.232 1.048-1.053.454-.574-.414-1.057.174-1.297.901zm84.699-12.168c-2.398-.988-3.428-2.824-4.453-4.608-.9-1.569-1.721-3.202-2.39-4.881-.668-1.677-1.832-3.266-1.313-5.377 1.517 1.057 1.391 3.077 2.848 4.428-.267-2.137-1.376-3.788-1.929-6.039l1.382.758.203-1.133 1.998-.38c.196.313.453.776.759 1.205 1.191 1.669 1.198 1.661 3.361 2.43.241.086.467.227.686.366 1.676 1.058 3.201 2.251 4.123 4.091.341.68.805 1.93.784 2.654-.004.17.138.369.261.512.315.365.173.676-.153.86-.945.534-1.354 1.583-2.194 2.211-.357.267-.421.624-.486 1.066-.09.601-1.27 1.381-1.819 1.255-.341-.079-.56-.704-1.024-.243-.243.242-.428.543-.644.825zm-68.13-49.029l-1.284.212.516.966-3.111 3.112c-.173 0-.384-.032-.583.004-2.36.437-3.931-.902-5.242-2.517a19.071 19.071 0 01-2.589-4.166c-.427-.947-.809-1.819-.503-3.105l1.991 4.377.341-.11c-.051-.267-.059-.554-.162-.799-.427-1.014-.912-2.004-1.314-3.026-.178-.453-.56-1.017.413-1.228.3-.064.475-.712.705-1.095.2-.337.395-.677.553-.948.984-.09.993.77 1.607 1.124l-.474-1.795 1.156-.917c.265.264.617.684.943-.09.354-.839.877-1.165 1.725-.615.077.05.237.089.288.047.982-.81 1.56-.003 2.015.616 1.084 1.479 1.595 3.254 2.244 4.944.153.396.486 1.328-.633 1.372-.063.003-.112.35-.166.537.232.056.59.237.679.147.627-.628.965.193.903.337-.377.886.497 1.743-.018 2.616zm-7.618-44.894l.87.87.188-1.621c.866-.181 1.758-.41 2.665-.544a5.679 5.679 0 011.672.005c.417.065.09.841.866.91.503.043.888.896 1.246 1.49.29.482-.145 1.526.957 1.464l.115 2.049c.003.066.018.131.028.198l3.126 3.126c.335 0 .69-.044 1.029.01.522.084 1.084.601.816.922-.595.714.473 1.207.049 1.79-1.627.487-2.14.54-3.464.31.332.716.621 1.34.983 2.126-.211.203-.49.698-.764.696-1.734-.013-3.558.427-5.103-.804-.419-.334-.925-.595-1.251-1.003-.743-.93-1.408-1.924-2.086-2.905-.334-.483-.619-1.002-.94-1.496-.497-.764-.35-1.866-1.261-2.413.138-.927-.385-1.628-.719-2.428-.454-1.087-.172-2.127.978-2.752zM75.079 6.286h1.94c.751.001 1.563-.125 1.735.96.019.12.3.305.434.285.889-.132 1.12.709 1.663 1.078 1.476 1.003 1.694 2.655 2.062 4.182.21.87-.07 1.496-1.062 2.089-1.112.666-2.505 1.08-3.269 2.289-.674.013-1.225 1.067-2.013.224-.114-.122-.367-.163-.555-.16-2.655.05-4.316-1.474-5.704-3.506-.705-1.03-1.586-1.952-1.862-3.221-.114-.52-.18-1.055-.217-1.586-.013-.174.09-.477.211-.52 1.069-.383 1.845-1.294 2.881-1.665 1.278-.456 2.644-.594 3.756-.45zm-3.373 102.049l.973 1.532c.1-.732.137-.983.165-1.235.093-.834.092-.832 1.145-.939.132-.014.335.004.382-.071.48-.758 1.231-.97 1.989-.742.859.259 1.78.583 2.448 1.146 2.607 2.197 4.14 5.142 5.332 8.266.202.533.028 1.209.028 1.81l-.803-.089c.053.754-.118 1.314-1 1.492-.265.054-.627.449-.653.715-.089.909-1.022.466-1.348.939-.52-.828-1.414.174-2-.417-.56-.567-1.326-1.003-1.696-1.668-.816-1.465-1.596-2.99-2.074-4.585-.244-.816-.605-1.358-1.234-1.729-1.02-.599-1.814-1.359-2.312-2.439-.416-.902-.434-.893.658-1.986zm39.43-24.469c0-.209-.05-.5.018-.76.045-.175.344-.294.37-.461.028-.183-.186-.393-.188-.592-.002-.176.247-.393.198-.523-.089-.24-.288-.463-.492-.63-.136-.11-.362-.112-.641-.187l.343 1.19c-.743-.452-1.568-.813-1.205-1.905l.983.422c.12-1.314-1.098-.63-1.567-1.252.687.081 1.144-.392 1.835-.3.32.043.736-.638 1.227-1.102l2.338 1.907.225-1.374 3.092-.597c.538.686.958 1.313 1.471 1.852.444.466 1.055.777 1.483 1.254 1.208 1.349 1.756 3.051 2.253 4.735.178.603.374 1.556-.778 1.717.005 1.107-1.161 1.272-1.687 1.973-.66.878-1.826 1.03-3.085.52-1.885-.76-3.124-2.233-4.329-3.666-.602-.718-1.279-1.395-1.864-2.22zm34.671 27.283l1.043.355c.077-1.77-1.752-2.266-2.007-3.895.37.164.672.233.89.407.35.279.645.626 1.082 1.063-.149-.888-.248-1.091-.754-1.698 1.106-1.338 1.106-1.338 2.412-1.343.719.81 1.332 1.876 2.252 2.437 1.016.621 1.315 1.681 2.064 2.441.716.728 1.192 1.718 1.666 2.648.261.509.482 1.159.397 1.694-.108.677-.396 1.671-.875 1.863-.786.318-.61.874-.858 1.352-.34.653-.804 1.289-1.656 1.429-.497.082-1.09.462-1.455.297-.887-.4-1.805-.91-2.461-1.61-1.239-1.32-2.347-2.773-3.407-4.245-.266-.368-.143-1.016-.222-1.745l.792.638c-.155-1.074.783-1.441 1.097-2.088zm-11.06 77.16l-1.12-.616c-.473 1.709-.591 1.798-1.988 1.182l.986 2.292-1.115.648-2.13-2.13c-.455 1.025.797 1.499.674 2.489-1.124.156-1.776-.608-2.423-1.312-.353-.384-.545-.92-.909-1.29-1.623-1.648-3.081-3.429-4.44-5.296-.122-.168-.291-.302-.442-.447-.819-.781-1.678-1.537-1.739-2.81.818-.501 1.252.27 1.808.748.566-.936-.743-1.061-.684-1.75.05-.832 1.632.229 1.23-1.131h2.279c.651.459 1.312.914 1.96 1.385.651.473 1.08 1.153 1.877 1.538.773.375 1.285 1.259 1.965 1.858.444.391.725.929 1.434 1.105.513.126.787.905 1.566.804.217-.028.608.364.718.642.211.531.276 1.118.493 2.091zM120.291 47.6c.724.048 1.223-.326 1.885.152l-.846.291c.248.844.525 1.681.728 2.536.051.22-.064.652-.216.716-.844.356-1.099 1.264-1.756 1.762-.291.22-.727.292-1.107.335-.191.021-.415-.266-.606-.246-.232.024-.445.227-.689.366-.361-1.276-.343-1.328-1.765-1.812-.851-.29-1.027-1.126-1.631-1.652l-.411.877c-.212-.222-.569-.425-.568-.625.011-2.507.008-2.563-1.136-4.065-.645 1.133.591 1.79.658 2.898-.306-.048-.763-.013-.817-.143-.537-1.307-1.357-2.541-.517-4.109.261-.486.308-.742.894-.752.361-.005.749-.217 1.07-.421.834-.527 1.637-1.1 2.528-1.708.204.304.392.586.347.517.703.49 1.435-.83 1.553.546.034.39.906-.54.906.481 0 .395.726.791 1.091 1.156l-.378.983.311.215.596-1.133.88 1.493-1.004 1.343zm-70.716 62.841l-1.294-1.633-.535 1.093c-.809-.38-1.353-1.006-1.817-1.66-1.025-1.445-1.817-3.038-2.855-4.486-.639-.889-.677-2.007-.424-3.164.959-.194 1.166.933 1.965 1.217V99.76l4.301-.606c1.4 1.258 2.322 2.616 2.975 4.186.374.894 1.143 1.565 1.377 2.588.092.404-.426.948.212 1.249.01.004-.19.496-.196.494-1.042-.376-1.392 1.135-2.394.893-.065-.017-.242.371-.342.583-.11.233-.16.5-.295.714-.1.161-.295.261-.678.58zm46.598 25.445c.3.696.52 1.202.833 1.925l.388-1.024c.094.058.248.098.268.173a4.23 4.23 0 001.053 1.886c.312.328.537.75.75 1.156.373.72.904 1.211 1.764 1.364l.338-.687 1.153.864c0 .263.028.375-.003.396-.381.248-.771.482-1.127.699l.336 1.875-1.472-.716-.848 1.709-1.019.116v.935c-1.057.791-1.922.685-2.838-.15-.998-.911-2.124-1.68-3.142-2.764l1.295-.855c-.231-.849-.647-1.606-1.246-2.347-.6-.741-.928-1.702-1.36-2.537.617-.76 1.103-.198 1.669.04.024-.212.122-.438.055-.591-.422-.949-.24-1.418.655-1.459.839-.039 1.681-.008 2.498-.008zm-59.877 8.319l1 1.479c.093-.291.221-.478.192-.635-.144-.76-.33-1.511-.524-2.368h1.223l.491 1.022v-1.719c.24-.084.443-.109.586-.215.326-.243.843-.794.896-.751.535.439 1.195.174 1.714.373.773.296 1.507.813 1.497 1.799-.003.295-.394.623-.335.87.048.202.588.246.75.474.131.186.142.684.006.793-.545.435-.425.998-.388 1.526.047.659-.241 1.059-.826 1.225-.625.177-.77.578-.902 1.176-.186.844-.765 1.406-1.745 1.364a4.03 4.03 0 00-1.018.066c-.836.183-1.89-.018-2.15-.631-.637-1.497-1.558-2.911-1.387-4.672.067-.687.48-.882.92-1.176zm67.467-37.85l1.741.51c.284-.678.368-1.329-.232-1.935.738-.67 1.228.341 1.951.231l.208-1.125c.567-.607 1.077.512 1.762-.016.699-.54.876.626 1.471.759.334.075.646.423.884.716.79.969.914 2.34 1.978 3.186.254.202.118.897.176 1.515-1.18-.579-1.252 1.292-2.388.849-.349.565-.019 1.59-1.298 1.713l-.647-1.104-.507 1.061c-.716.17-1.044-.448-1.279-.84a8.735 8.735 0 00-3.103-3.091c-.805-.481-1.248-1.265-.717-2.429zM93.527 50.46l-2.67 2.093H89.09c-.689-.995-.912-2.304-1.927-3.126-.106-1.385-1.064-2.244-1.897-3.21-.264-.308-.207-.892-.32-1.465.304-.085.605-.079.763-.226 1.614-1.51 3.135-.66 4.422.369 1.099.879 2.026 2.041 2.804 3.224.441.67.43 1.639.592 2.341z" fill="#FFD155"/></svg>