<svg width="50" height="51" fill="none" xmlns="http://www.w3.org/2000/svg"><circle cx="25" cy="25.673" r="25" fill="url(#paint0_linear_5_35)"/><path d="M25 19.706c-.96 0-1.86.248-2.697.745a5.363 5.363 0 00-1.953 1.953 5.21 5.21 0 00-.698 2.65c0 .961.233 1.86.698 2.698a5.881 5.881 0 001.953 1.953 5.465 5.465 0 002.697.697 5.21 5.21 0 002.65-.697 5.363 5.363 0 001.954-1.953 5.201 5.201 0 00.744-2.698c0-.96-.248-1.844-.744-2.65a4.933 4.933 0 00-1.953-1.953 4.961 4.961 0 00-2.65-.745zm0 8.836a3.36 3.36 0 01-2.465-1.023 3.36 3.36 0 01-1.023-2.465 3.36 3.36 0 011.023-2.464A3.36 3.36 0 0125 21.567a3.36 3.36 0 012.465 1.023 3.36 3.36 0 011.023 2.464 3.36 3.36 0 01-1.023 2.465A3.36 3.36 0 0125 28.542zm6.836-9.068a1.39 1.39 0 01-.418.884 1.061 1.061 0 01-.837.372c-.341 0-.636-.124-.884-.372a1.207 1.207 0 01-.372-.884c0-.341.124-.636.372-.884s.543-.372.884-.372c.34 0 .635.124.883.372s.372.543.372.884zm3.534 1.256c-.062-.9-.201-1.675-.418-2.326a5.088 5.088 0 00-1.302-2 5.088 5.088 0 00-2-1.301c-.651-.217-1.426-.341-2.325-.372-.868-.062-2.31-.093-4.325-.093s-3.472.03-4.371.093c-.868.03-1.628.155-2.279.372a5.492 5.492 0 00-2.046 1.302 5.35 5.35 0 00-1.255 2c-.217.65-.357 1.425-.419 2.325-.031.868-.046 2.31-.046 4.324 0 2.016.015 3.473.046 4.372.062.868.201 1.627.418 2.278a5.796 5.796 0 001.256 2.046 5.276 5.276 0 002.046 1.21c.651.248 1.41.387 2.279.418.899.062 2.356.093 4.371.093 2.015 0 3.457-.031 4.325-.093.899-.031 1.674-.155 2.325-.372a5.35 5.35 0 002-1.256 5.492 5.492 0 001.302-2.046c.217-.65.34-1.41.372-2.278.062-.9.093-2.356.093-4.372 0-2.015-.016-3.456-.047-4.324zm-2.232 10.463c-.372.93-1.038 1.596-2 2-.496.185-1.333.31-2.51.371-.652.031-1.613.047-2.884.047h-1.488a67.68 67.68 0 01-2.883-.047c-1.147-.062-1.984-.186-2.511-.372-.93-.372-1.597-1.038-2-2-.186-.526-.31-1.363-.372-2.51a67.853 67.853 0 01-.046-2.884V24.31c0-1.24.015-2.2.046-2.883.062-1.178.186-2.015.372-2.511.372-.961 1.039-1.628 2-2 .527-.186 1.364-.31 2.51-.372a67.853 67.853 0 012.884-.046h1.488c1.24 0 2.201.015 2.883.046 1.178.062 2.015.186 2.512.372.96.372 1.627 1.039 2 2 .185.496.31 1.333.371 2.511.031.651.047 1.612.047 2.883v1.488c0 1.24-.016 2.202-.047 2.884-.062 1.147-.186 1.984-.372 2.51z" fill="#fff"/><defs><linearGradient id="paint0_linear_5_35" x1="32.559" y1="87.955" x2="103.546" y2="17.996" gradientUnits="userSpaceOnUse"><stop stop-color="#fff"/><stop offset=".148" stop-color="#FFC5A3" stop-opacity=".57"/><stop offset=".444" stop-color="#FF44EC" stop-opacity=".89"/><stop offset=".733" stop-color="#6A01B9"/><stop offset="1" stop-color="#6B01B9"/></linearGradient></defs></svg>