<svg width="50" height="51" fill="none" xmlns="http://www.w3.org/2000/svg"><circle cx="25" cy="25.673" r="25" fill="url(#paint0_linear_5_38)"/><path d="M36.858 31.425c-.248.558-1.302.977-3.162 1.256-.03.062-.077.248-.14.558l-.139.558c-.093.279-.279.418-.558.418-.124 0-.326-.03-.605-.093a6.29 6.29 0 00-1.209-.14c-.589 0-1.07.078-1.441.233-.248.124-.651.372-1.21.744-.62.434-1.13.744-1.534.93a4.343 4.343 0 01-1.907.326c-.62.062-1.255-.062-1.906-.372-.403-.186-.868-.465-1.395-.837l-.047-.047c-.558-.372-.96-.62-1.209-.744-.372-.155-.852-.232-1.441-.232-.341 0-.76.062-1.256.186a4.934 4.934 0 01-.558.046c-.279 0-.465-.14-.558-.418l-.14-.512c-.062-.34-.108-.542-.139-.604-2.108-.31-3.178-.806-3.209-1.488 0-.124.031-.233.093-.326.093-.124.202-.186.326-.186 1.364-.217 2.557-.93 3.58-2.139.527-.62.915-1.24 1.163-1.86v-.047c.186-.34.233-.62.14-.837-.093-.217-.28-.387-.558-.511a7.856 7.856 0 00-.791-.326l-.325-.093c-.9-.372-1.303-.806-1.21-1.302.062-.279.264-.496.605-.65.372-.156.682-.171.93-.047.434.186.806.279 1.116.279.186 0 .341-.031.465-.093l-.046-.558a52.448 52.448 0 01-.093-2.605c.03-.96.155-1.705.372-2.232.682-1.519 1.736-2.588 3.162-3.208a6.438 6.438 0 012.743-.605h.466c1.27 0 2.418.326 3.44.977 1.086.65 1.907 1.596 2.465 2.836.217.527.341 1.271.372 2.232 0 .59-.03 1.442-.093 2.558l-.046.605a.923.923 0 00.418.093c.31 0 .651-.093 1.023-.28.31-.154.636-.154.977 0 .465.156.698.435.698.838 0 .434-.403.821-1.21 1.162l-.325.093c-.775.248-1.225.527-1.349.837-.093.217-.046.496.14.837v.047c.248.62.636 1.24 1.163 1.86 1.023 1.21 2.216 1.922 3.58 2.14a.425.425 0 01.326.278c.093.124.108.28.046.465z" fill="#fff"/><defs><linearGradient id="paint0_linear_5_38" x1="-6.268" y1="-11.862" x2="-6.268" y2="50.674" gradientUnits="userSpaceOnUse"><stop stop-color="#FFFC00"/><stop offset="1" stop-color="#FF9000"/></linearGradient></defs></svg>