<svg width="50" height="51" fill="none" xmlns="http://www.w3.org/2000/svg"><circle cx="25" cy="25.673" r="25" fill="url(#paint0_linear_5_41)"/><path d="M34.44 20.218c.031.124.047.326.047.605 0 2.232-.543 4.386-1.628 6.463-1.116 2.202-2.682 3.953-4.697 5.255-2.201 1.457-4.728 2.186-7.58 2.186-2.728 0-5.224-.729-7.487-2.186.341.031.729.047 1.163.047 2.263 0 4.294-.698 6.092-2.093-1.085 0-2.047-.31-2.884-.93a5.044 5.044 0 01-1.674-2.418c.31.031.605.047.884.047.434 0 .868-.047 1.302-.14-1.116-.248-2.046-.822-2.79-1.72-.744-.9-1.116-1.923-1.116-3.07v-.093c.682.403 1.41.62 2.185.651a5.417 5.417 0 01-1.58-1.767 4.646 4.646 0 01-.605-2.325c0-.868.232-1.69.697-2.465a13.538 13.538 0 004.418 3.627c1.767.9 3.643 1.396 5.627 1.489a6.778 6.778 0 01-.093-1.116c0-.869.217-1.675.651-2.419a4.731 4.731 0 011.767-1.813 4.716 4.716 0 012.418-.651c.713 0 1.364.14 1.953.418a5.45 5.45 0 011.628 1.116 9.933 9.933 0 003.116-1.162c-.372 1.147-1.085 2.046-2.14 2.697a10.49 10.49 0 002.79-.79 10.734 10.734 0 01-2.464 2.557z" fill="#fff"/><defs><linearGradient id="paint0_linear_5_41" x1="0" y1=".673" x2="0" y2="50.674" gradientUnits="userSpaceOnUse"><stop stop-color="#4ECEF6"/><stop offset=".538" stop-color="#4E8FF6"/><stop offset="1" stop-color="#226ADB"/></linearGradient></defs></svg>