<svg width="188" height="70" fill="none" xmlns="http://www.w3.org/2000/svg"><rect width="188" height="70" rx="35" fill="#2A2F39"/><path d="M71.252 25.495h11.78v3.744h-7.32v5.202h7.32v3.66h-7.32v6.661h-4.46V25.495zm14.202 6h4.212v2.78c.22-.955.67-1.688 1.348-2.202a3.718 3.718 0 012.312-.798 4.7 4.7 0 011.101.11v3.909c-.42-.05-.843-.078-1.266-.083-1.156 0-2.027.376-2.615 1.128-.586.734-.88 1.835-.88 3.304v5.119h-4.21V31.495h-.002zm15.621 13.625c-1.284 0-2.404-.303-3.358-.909a5.88 5.88 0 01-2.147-2.477c-.495-1.063-.744-2.267-.744-3.605 0-1.322.258-2.515.772-3.578a5.972 5.972 0 012.202-2.505c.971-.605 2.082-.909 3.33-.909.936 0 1.772.203 2.505.606.733.405 1.284.956 1.651 1.652v-1.9h4.184v13.267h-4.184V42.89c-.367.66-.936 1.201-1.706 1.624a5.21 5.21 0 01-2.505.606zm1.211-3.496c1.009 0 1.789-.33 2.34-.99.55-.661.826-1.497.826-2.505 0-.991-.276-1.817-.826-2.478-.551-.66-1.331-.99-2.34-.99-.955 0-1.724.32-2.312.963-.568.643-.853 1.477-.853 2.505 0 1.028.285 1.871.853 2.532.588.642 1.358.963 2.312.963zm10.129-10.129h4.211v1.927c.295-.68.771-1.23 1.431-1.651.68-.421 1.469-.634 2.367-.634 2.092 0 3.478.816 4.156 2.45a4.192 4.192 0 011.68-1.761 4.816 4.816 0 012.559-.689c3.138 0 4.707 1.798 4.707 5.395v8.23h-4.239v-7.46c0-.897-.165-1.558-.495-1.98-.331-.422-.826-.634-1.487-.634-.715 0-1.266.248-1.651.743-.386.478-.578 1.312-.578 2.505v6.826h-4.239v-7.487c0-.898-.165-1.55-.495-1.954-.311-.421-.798-.633-1.458-.633-.734 0-1.294.248-1.68.743-.385.478-.578 1.312-.578 2.505v6.826h-4.21V31.495h-.001zm36.931 5.946c0 .568-.038 1.183-.112 1.844h-9.797c.037.862.33 1.522.881 1.982.55.458 1.295.688 2.229.688 1.303 0 2.129-.396 2.477-1.184h4.129c-.203 1.303-.918 2.357-2.147 3.165-1.211.789-2.698 1.184-4.459 1.184-2.275 0-4.064-.615-5.367-1.845-1.284-1.23-1.927-2.944-1.927-5.146 0-1.432.293-2.67.881-3.716a5.81 5.81 0 012.504-2.422c1.084-.568 2.34-.854 3.773-.854 1.357 0 2.558.266 3.604.799 1.064.533 1.881 1.275 2.449 2.23.588.955.882 2.046.882 3.275zm-4.158-.771c-.018-.88-.266-1.551-.744-2.01-.476-.457-1.165-.687-2.064-.687-.898 0-1.614.247-2.146.743-.514.477-.78 1.128-.799 1.954h5.753zm6.014-5.175h4.212v2.78c.22-.955.67-1.688 1.348-2.202a3.725 3.725 0 012.312-.798c.44 0 .808.038 1.101.11v3.909c-.42-.05-.843-.078-1.266-.083-1.156 0-2.027.376-2.615 1.128-.588.734-.88 1.835-.88 3.304v5.119h-4.212V31.495z" fill="#F7F5ED"/><path d="M28 17h24.476v12.238H40.238L28 17zm0 12.238h12.238l12.238 12.238H28V29.238zm0 12.238h12.238v12.238L28 41.476z" fill="#fff"/></svg>