<svg width="170" height="70" fill="none" xmlns="http://www.w3.org/2000/svg"><rect width="170" height="70" rx="35" fill="#2A2F39"/><path fill-rule="evenodd" clip-rule="evenodd" d="M143.957 42.98c.076.87.771 1.977 1.977 1.977h.704a.5.5 0 00.498-.498V28.953h-.003a.497.497 0 00-.495-.47h-2.184c-.264 0-.48.21-.494.47h-.003v1.26c-1.339-1.65-3.449-2.334-5.565-2.334-4.811 0-8.71 3.902-8.71 8.716 0 4.815 3.899 8.717 8.71 8.717 2.116 0 4.423-.82 5.565-2.334v.002zm-5.557-.718c-3.059 0-5.539-2.537-5.539-5.667 0-3.129 2.48-5.665 5.539-5.665 3.06 0 5.54 2.536 5.54 5.665 0 3.13-2.48 5.667-5.54 5.667zm-11.481-6.772c0-4.523-2.851-7.574-7.397-7.574-2.17 0-3.949 1.256-4.578 2.335-.136-.844-.583-1.73-1.971-1.73h-.707a.499.499 0 00-.497.497v15.507h.002c.015.261.231.47.495.47h2.184a.509.509 0 00.098-.01c.015-.002.028-.008.042-.012.017-.005.034-.009.049-.015.019-.008.037-.02.055-.03l.027-.014a.47.47 0 00.061-.049l.01-.008a.496.496 0 00.153-.332h.003v-9.16a4.396 4.396 0 014.395-4.398 4.397 4.397 0 014.395 4.399l.002 7.656v-.003l.002.021v1.485h.002c.015.261.231.47.495.47h2.185a.506.506 0 00.097-.01c.013-.002.025-.007.038-.01.018-.006.036-.01.053-.017a.416.416 0 00.051-.028.225.225 0 00.031-.016c.021-.014.039-.03.057-.045l.014-.012a.443.443 0 00.06-.07.496.496 0 00.093-.26v-.002h.003l-.002-9.035zm-22.751 7.49c.076.87.772 1.977 1.977 1.977h.705a.499.499 0 00.497-.498V28.953h-.003a.497.497 0 00-.494-.47h-2.185c-.264 0-.48.21-.495.47h-.002v1.26c-1.339-1.65-3.449-2.334-5.565-2.334-4.81 0-8.71 3.902-8.71 8.716 0 4.815 3.9 8.717 8.71 8.717 2.116 0 4.422-.82 5.565-2.334v.002zm-5.557-.718c-3.059 0-5.54-2.537-5.54-5.667 0-3.129 2.481-5.665 5.54-5.665 3.06 0 5.539 2.536 5.539 5.665 0 3.13-2.479 5.667-5.539 5.667zM76.974 40.76c1.458 1.01 3.05 1.502 4.58 1.502 1.457 0 2.964-.756 2.964-2.072 0-1.758-3.283-2.03-5.346-2.732-2.063-.702-3.84-2.152-3.84-4.501 0-3.594 3.2-5.079 6.187-5.079 1.892 0 3.844.625 5.11 1.52.436.33.17.71.17.71l-1.208 1.727c-.135.194-.373.362-.714.152-.34-.21-1.536-1.058-3.358-1.058-1.823 0-2.92.843-2.92 1.886 0 1.252 1.426 1.646 3.097 2.072 2.912.786 6.089 1.73 6.089 5.303 0 3.166-2.96 5.123-6.231 5.123-2.479 0-4.59-.707-6.36-2.007-.368-.37-.11-.712-.11-.712l1.202-1.718c.245-.322.553-.21.688-.116zm-8.399 2.22c.076.87.772 1.977 1.977 1.977h.705a.499.499 0 00.497-.498V28.953h-.003a.497.497 0 00-.494-.47h-2.184c-.265 0-.48.21-.495.47h-.003v1.26c-1.338-1.65-3.449-2.334-5.565-2.334-4.81 0-8.71 3.902-8.71 8.716 0 4.815 3.9 8.717 8.71 8.717 2.116 0 4.423-.82 5.565-2.334v.002zm-5.556-.718c-3.06 0-5.54-2.537-5.54-5.667 0-3.129 2.48-5.665 5.54-5.665 3.059 0 5.539 2.536 5.539 5.665 0 3.13-2.48 5.667-5.54 5.667z" fill="#F7F5ED"/><path fill-rule="evenodd" clip-rule="evenodd" d="M42.09 37.188a5.861 5.861 0 100 11.723 5.861 5.861 0 000-11.723zm-15.229 0a5.86 5.86 0 100 11.723 5.862 5.862 0 100-11.722zm13.476-7.327a5.862 5.862 0 11-11.723 0 5.862 5.862 0 0111.723 0z" fill="#fff"/></svg>