<svg width="170" height="70" fill="none" xmlns="http://www.w3.org/2000/svg"><rect width="170" height="70" rx="35" fill="#2A2F39"/><path d="M58.377 41.987V20.032h3.412v8.655c1.074-1.6 2.685-2.4 4.833-2.4 1.832 0 3.248.542 4.249 1.626 1 1.085 1.5 2.596 1.5 4.534v9.54h-3.41V32.92c0-2.505-1.117-3.759-3.35-3.759-1.116 0-2.032.337-2.747 1.011-.716.674-1.074 1.622-1.075 2.843v8.972h-3.412zm30.116-1.895c-1.516 1.516-3.422 2.275-5.718 2.275-2.295 0-4.206-.759-5.733-2.275-1.527-1.516-2.29-3.444-2.29-5.782s.763-4.26 2.29-5.765c1.527-1.505 3.438-2.258 5.733-2.259 2.296 0 4.202.753 5.718 2.26 1.517 1.505 2.275 3.427 2.275 5.764s-.758 4.265-2.275 5.782zm-8.955-1.927c.81.947 1.89 1.421 3.237 1.421 1.349 0 2.428-.474 3.238-1.421.811-.948 1.216-2.233 1.217-3.855 0-1.6-.41-2.874-1.232-3.822-.822-.948-1.896-1.422-3.223-1.422-1.348 0-2.427.469-3.237 1.406-.811.937-1.216 2.216-1.217 3.837 0 1.623.406 2.908 1.217 3.856zm19.126 4.201c-3.138 0-4.707-1.685-4.707-5.055v-7.77h-2.37v-2.875h2.465l.79-4.517H97.4v4.517h6.097v2.874H97.4v7.677c0 1.411.516 2.117 1.548 2.117.969 0 1.843-.885 2.622-2.654l2.654 1.358c-1.306 2.886-3.159 4.328-5.56 4.328z" fill="#F7F5ED"/><path d="M105.321 49c-1.517 0-2.77-.421-3.759-1.264l1.263-2.685c.611.716 1.274 1.074 1.99 1.075.948 0 1.422-.61 1.422-1.832V26.666h3.411v17.69c0 1.643-.405 2.827-1.216 3.554-.811.726-1.848 1.09-3.111 1.09zm2.622-24.925a2.117 2.117 0 01-1.517-.569 1.924 1.924 0 01-.6-1.453 1.965 1.965 0 01.6-1.469 2.242 2.242 0 013.017 0 1.935 1.935 0 01.616 1.47 1.905 1.905 0 01-.616 1.437 2.09 2.09 0 01-1.5.584zm10.178 18.291c-1.748 0-3.165-.437-4.249-1.31-1.084-.875-1.627-2.049-1.627-3.522 0-1.348.564-2.49 1.69-3.429 1.127-.937 2.543-1.406 4.249-1.405 1.748 0 3.222.558 4.423 1.674V32.51c0-1.095-.279-1.942-.837-2.543-.559-.6-1.354-.9-2.385-.9-2.085 0-3.381 1.063-3.886 3.19l-3.128-.663c.421-1.643 1.253-2.938 2.496-3.886 1.243-.947 2.791-1.421 4.644-1.421 2.022 0 3.617.531 4.786 1.595 1.169 1.064 1.753 2.617 1.753 4.66v9.445h-3.317V40.06c-1.116 1.537-2.654 2.306-4.612 2.306zm.631-2.527c1.517 0 2.801-.758 3.855-2.274v-.475c-1.054-1.263-2.339-1.895-3.855-1.895-.884 0-1.601.216-2.149.648a2.022 2.022 0 00-.821 1.658 2.056 2.056 0 00.805 1.69c.538.432 1.26.648 2.165.648zm10.618 2.148V26.666h3.317v2.653c.842-1.937 2.295-2.906 4.359-2.906 1.221 0 2.232.4 3.033 1.2.801.8 1.201 1.875 1.2 3.222a7.496 7.496 0 01-.411 2.37l-3.127-.316c.064-.419.106-.84.126-1.264 0-1.58-.653-2.369-1.958-2.37-.885 0-1.628.47-2.228 1.407-.6.937-.9 2.174-.9 3.712v7.613h-3.411z" fill="#F7F5ED"/><path d="M37.072 29.01c2.542-1.413 6.024-3.348 6.024-8.979H38.88c0 3.151-1.534 4.003-3.856 5.293C32.482 26.737 29 28.671 29 34.303h4.216c0-3.151 1.534-4.003 3.856-5.293zm7.298-1.294c0 3.15-1.535 4.002-3.856 5.292-2.542 1.413-6.025 3.347-6.025 8.979h4.216c0-3.151 1.534-4.003 3.856-5.293 2.542-1.413 6.024-3.347 6.024-8.978H44.37z" fill="#fff"/></svg>