<svg width="168" height="70" fill="none" xmlns="http://www.w3.org/2000/svg"><rect width="168" height="70" rx="35" fill="#2A2F39"/><path d="M35.347 31.076c4.77-1.644 5.582-5.926 4.973-9.864 0-.142.122-.244.244-.203 4.567 2.233 9.702 7.104 9.702 14.411 0 5.602-4.344 10.555-10.656 10.555a10.149 10.149 0 01-5.724-18.816c.122-.081.284 0 .284.142.06.751.264 2.639 1.096 3.776h.081z" fill="#fff"/><path d="M68.703 41.53l.345-.406 1.076 3.41-.142.142c-.812.75-2.03 1.136-3.593 1.136h-.06c-1.421 0-2.538-.406-3.31-1.157-.77-.77-1.176-1.928-1.176-3.39V31.97h-2.74v-3.755h2.74v-4.526h4.221v4.527h3.35v3.755h-3.37v8.382c0 .386.102 1.624 1.279 1.624.609 0 1.177-.223 1.38-.467v.02zm2.233 3.897V28.235h4.222v17.192h-4.222zm2.09-24.215a2.537 2.537 0 11-2.537 2.557c0-1.38 1.157-2.557 2.538-2.557zm13.478 6.597c3.654 0 5.663 1.989 5.663 5.622v11.975h-4.222v-10.96c-.081-1.949-1.015-2.842-3.004-2.842-1.786 0-3.227 1.096-3.958 2.03v11.772h-4.222v-17.15h4.222v1.826c1.218-1.177 3.166-2.233 5.521-2.233v-.04zm19.709 2.212v-8.078h4.222v23.504h-4.222v-1.786a6.959 6.959 0 01-5.014 2.172c-4.607 0-7.692-3.613-7.692-8.992 0-5.4 3.085-9.012 7.692-9.012a6.907 6.907 0 015.014 2.192zm0 3.633a5.204 5.204 0 00-3.978-2.03c-2.619 0-4.364 2.091-4.364 5.217 0 3.105 1.745 5.196 4.364 5.196 1.522 0 3.186-.812 3.978-1.99v-6.393zm14.086-5.825c4.993 0 8.464 3.856 8.464 9.337v1.157h-12.767c.426 2.415 2.334 3.958 4.932 3.958 1.645 0 3.451-.71 4.486-1.746l.284-.243 2.01 2.882-.203.182a9.867 9.867 0 01-6.922 2.477c-5.277 0-8.991-3.715-8.991-9.012a8.682 8.682 0 015.319-8.315 8.683 8.683 0 013.408-.677h-.02zm-4.323 7.307h8.667c-.244-2.578-2.375-3.755-4.344-3.755-2.963 0-4.08 2.233-4.323 3.775v-.02zm22.997-7.307h.304v4.262l-.365-.06a5.703 5.703 0 00-1.076-.102c-1.36 0-3.247.954-3.958 1.969v11.508h-4.222V28.235h4.242v1.908c1.401-1.462 3.248-2.314 5.075-2.314z" fill="#F7F5ED"/></svg>